<svg xmlns="http://www.w3.org/2000/svg" viewBox="0 0 512.63 440.99"><defs><style>.cls-1{fill:#ebf0ff;}.cls-2{fill:#36e7f7;}.cls-3{fill:#88f7ff;}.cls-4{fill:#0b246e;}.cls-5{fill:#d7ecfa;}.cls-6{fill:#eef8fc;}.cls-7{isolation:isolate;}.cls-8{fill:#fff;}.cls-9{fill:#ebebeb;}.cls-10{fill:#544438;}.cls-11{fill:#4661ad;}.cls-12{fill:#425ca3;}.cls-13,.cls-15{fill:none;stroke-miterlimit:10;}.cls-13{stroke:#0b246e;stroke-width:0.75px;}.cls-14{fill:#ff8b91;}.cls-15{stroke:#fff;stroke-linecap:round;stroke-width:4px;}</style></defs><title>Recurso 1</title><g id="Capa_2" data-name="Capa 2"><g id="Objects"><path class="cls-1" d="M509.9,441H2.72C-8.63,386.8,15.49,329.67,75.07,288c100.09-70.07,262.39-70.07,362.49,0C497.14,329.67,521.26,386.8,509.9,441Z"/><polygon class="cls-1" points="411.76 159.93 275.56 81.43 275.56 76.8 411.76 155.3 411.76 159.93"/><polygon class="cls-1" points="266.04 140.05 129.84 61.55 129.84 56.92 266.04 135.42 266.04 140.05"/><polygon class="cls-1" points="459.38 88.84 313.42 4.63 313.42 0 459.38 84.2 459.38 88.84"/><polygon class="cls-1" points="365.37 44.24 313.42 14.28 313.42 9.65 365.37 39.61 365.37 44.24"/><polygon class="cls-1" points="243.66 53.03 191.72 23.07 191.72 18.44 243.66 48.4 243.66 53.03"/><polygon class="cls-1" points="163.73 50.2 121.64 25.89 121.64 21.26 163.73 45.57 163.73 50.2"/><polygon class="cls-1" points="385.36 116.16 215.08 17.85 215.08 13.22 385.36 111.53 385.36 116.16"/><path class="cls-2" d="M305.67,248.07l5,100.83a2.43,2.43,0,0,0,1.11,1.9h0a2.4,2.4,0,0,0,3.69-2l.86-100.1a2.39,2.39,0,0,0-2.1-2.4l-5.89-.73A2.4,2.4,0,0,0,305.67,248.07Z"/><path class="cls-3" d="M315.47,246.31l-2.15,103.53c0,2.06,4.48,1.59,6.15.38l.34-.25a2.54,2.54,0,0,0,1-1.91l5.1-100.34a2.54,2.54,0,0,0-1.94-2.59l-5.43-1.28A2.52,2.52,0,0,0,315.47,246.31Z"/><polygon class="cls-4" points="367.25 219.18 370.94 220.58 370.94 225.01 367.25 225.01 367.25 219.18"/><path class="cls-4" d="M260,275.28,95.49,179.81l95-50.25A21.16,21.16,0,0,1,211,130l157.85,91.62a4.26,4.26,0,0,1-.15,7.45L280.5,275.69A21.16,21.16,0,0,1,260,275.28Z"/><path class="cls-3" d="M260,270.34,95.48,174.87l95-50.25A21.14,21.14,0,0,1,211,125l157.85,91.61a4.27,4.27,0,0,1-.15,7.46l-88.18,46.65A21.18,21.18,0,0,1,260,270.34Z"/><polygon class="cls-5" points="269.23 207.41 269.22 209.52 241.03 225.9 241.04 223.78 269.23 207.41"/><polygon class="cls-5" points="241.04 223.78 241.03 225.9 178.65 189.88 178.66 187.77 241.04 223.78"/><polygon class="cls-6" points="269.23 207.41 241.04 223.78 178.66 187.77 206.84 171.39 269.23 207.41"/><g class="cls-7"><polygon class="cls-5" points="210.65 175.51 210.65 176.75 206.75 179.02 206.75 177.78 210.65 175.51"/><polygon class="cls-5" points="206.75 177.78 206.75 179.02 202.9 176.8 202.91 175.56 206.75 177.78"/><polygon class="cls-8" points="210.65 175.51 206.75 177.78 202.91 175.56 206.81 173.29 210.65 175.51"/></g><g class="cls-7"><polygon class="cls-5" points="215.59 178.36 215.59 179.6 211.69 181.87 211.69 180.63 215.59 178.36"/><polygon class="cls-5" points="211.69 180.63 211.69 181.87 207.84 179.65 207.84 178.41 211.69 180.63"/><polygon class="cls-8" points="215.59 178.36 211.69 180.63 207.84 178.41 211.74 176.14 215.59 178.36"/></g><g class="cls-7"><polygon class="cls-5" points="220.51 181.2 220.51 182.44 216.61 184.71 216.62 183.47 220.51 181.2"/><polygon class="cls-5" points="216.62 183.47 216.61 184.71 212.76 182.49 212.77 181.25 216.62 183.47"/><polygon class="cls-8" points="220.51 181.2 216.62 183.47 212.77 181.25 216.67 178.98 220.51 181.2"/></g><g class="cls-7"><polygon class="cls-5" points="225.44 184.05 225.44 185.29 221.54 187.55 221.54 186.31 225.44 184.05"/><polygon class="cls-5" points="221.54 186.31 221.54 187.55 217.69 185.33 217.69 184.09 221.54 186.31"/><polygon class="cls-8" points="225.44 184.05 221.54 186.31 217.69 184.09 221.59 181.83 225.44 184.05"/></g><g class="cls-7"><polygon class="cls-5" points="230.38 186.9 230.37 188.14 226.47 190.4 226.48 189.16 230.38 186.9"/><polygon class="cls-5" points="226.48 189.16 226.47 190.4 222.63 188.18 222.63 186.94 226.48 189.16"/><polygon class="cls-8" points="230.38 186.9 226.48 189.16 222.63 186.94 226.53 184.68 230.38 186.9"/></g><g class="cls-7"><polygon class="cls-5" points="235.3 189.74 235.3 190.98 231.4 193.25 231.4 192.01 235.3 189.74"/><polygon class="cls-5" points="231.4 192.01 231.4 193.25 227.55 191.03 227.56 189.79 231.4 192.01"/><polygon class="cls-8" points="235.3 189.74 231.4 192.01 227.56 189.79 231.45 187.52 235.3 189.74"/></g><g class="cls-7"><polygon class="cls-5" points="240.23 192.59 240.22 193.82 236.32 196.09 236.33 194.85 240.23 192.59"/><polygon class="cls-5" points="236.33 194.85 236.32 196.09 232.48 193.87 232.48 192.63 236.33 194.85"/><polygon class="cls-8" points="240.23 192.59 236.33 194.85 232.48 192.63 236.38 190.36 240.23 192.59"/></g><g class="cls-7"><polygon class="cls-5" points="245.16 195.44 245.16 196.68 241.26 198.94 241.26 197.7 245.16 195.44"/><polygon class="cls-5" points="241.26 197.7 241.26 198.94 237.4 196.71 237.41 195.47 241.26 197.7"/><polygon class="cls-8" points="245.16 195.44 241.26 197.7 237.41 195.47 241.31 193.21 245.16 195.44"/></g><g class="cls-7"><polygon class="cls-5" points="250.09 198.28 250.09 199.52 246.19 201.78 246.19 200.54 250.09 198.28"/><polygon class="cls-5" points="246.19 200.54 246.19 201.78 242.34 199.56 242.34 198.32 246.19 200.54"/><polygon class="cls-8" points="250.09 198.28 246.19 200.54 242.34 198.32 246.24 196.06 250.09 198.28"/></g><g class="cls-7"><polygon class="cls-5" points="255.01 201.12 255.01 202.36 251.11 204.63 251.12 203.39 255.01 201.12"/><polygon class="cls-5" points="251.12 203.39 251.11 204.63 247.26 202.41 247.27 201.17 251.12 203.39"/><polygon class="cls-8" points="255.01 201.12 251.12 203.39 247.27 201.17 251.17 198.9 255.01 201.12"/></g><g class="cls-7"><polygon class="cls-5" points="264.88 206.82 264.87 208.06 260.97 210.32 260.98 209.08 264.88 206.82"/><polygon class="cls-5" points="260.98 209.08 260.97 210.32 252.19 205.25 252.19 204.01 260.98 209.08"/><polygon class="cls-8" points="264.88 206.82 260.98 209.08 252.19 204.01 256.09 201.75 264.88 206.82"/></g><g class="cls-7"><polygon class="cls-5" points="210.62 181.25 210.61 182.49 206.72 184.75 206.72 183.51 210.62 181.25"/><polygon class="cls-5" points="206.72 183.51 206.72 184.75 197.93 179.68 197.94 178.44 206.72 183.51"/><polygon class="cls-8" points="210.62 181.25 206.72 183.51 197.94 178.44 201.84 176.18 210.62 181.25"/></g><g class="cls-7"><polygon class="cls-5" points="215.54 184.09 215.54 185.33 211.64 187.6 211.64 186.36 215.54 184.09"/><polygon class="cls-5" points="211.64 186.36 211.64 187.6 207.79 185.38 207.8 184.14 211.64 186.36"/><polygon class="cls-8" points="215.54 184.09 211.64 186.36 207.8 184.14 211.7 181.87 215.54 184.09"/></g><g class="cls-7"><polygon class="cls-5" points="220.47 186.94 220.47 188.18 216.57 190.44 216.57 189.2 220.47 186.94"/><polygon class="cls-5" points="216.57 189.2 216.57 190.44 212.72 188.22 212.72 186.98 216.57 189.2"/><polygon class="cls-8" points="220.47 186.94 216.57 189.2 212.72 186.98 216.62 184.72 220.47 186.94"/></g><g class="cls-7"><polygon class="cls-5" points="225.41 189.79 225.4 191.03 221.5 193.29 221.5 192.05 225.41 189.79"/><polygon class="cls-5" points="221.5 192.05 221.5 193.29 217.65 191.07 217.66 189.83 221.5 192.05"/><polygon class="cls-8" points="225.41 189.79 221.5 192.05 217.66 189.83 221.56 187.56 225.41 189.79"/></g><g class="cls-7"><polygon class="cls-5" points="230.33 192.63 230.33 193.87 226.43 196.14 226.43 194.9 230.33 192.63"/><polygon class="cls-5" points="226.43 194.9 226.43 196.14 222.58 193.91 222.58 192.68 226.43 194.9"/><polygon class="cls-8" points="230.33 192.63 226.43 194.9 222.58 192.68 226.48 190.41 230.33 192.63"/></g><g class="cls-7"><polygon class="cls-5" points="235.26 195.47 235.25 196.71 231.35 198.98 231.36 197.74 235.26 195.47"/><polygon class="cls-5" points="231.36 197.74 231.35 198.98 227.51 196.76 227.51 195.52 231.36 197.74"/><polygon class="cls-8" points="235.26 195.47 231.36 197.74 227.51 195.52 231.41 193.25 235.26 195.47"/></g><g class="cls-7"><polygon class="cls-5" points="240.19 198.32 240.19 199.56 236.29 201.83 236.29 200.59 240.19 198.32"/><polygon class="cls-5" points="236.29 200.59 236.29 201.83 232.43 199.6 232.44 198.36 236.29 200.59"/><polygon class="cls-8" points="240.19 198.32 236.29 200.59 232.44 198.36 236.34 196.1 240.19 198.32"/></g><g class="cls-7"><polygon class="cls-5" points="245.12 201.17 245.11 202.41 241.21 204.67 241.22 203.43 245.12 201.17"/><polygon class="cls-5" points="241.22 203.43 241.21 204.67 237.37 202.45 237.37 201.21 241.22 203.43"/><polygon class="cls-8" points="245.12 201.17 241.22 203.43 237.37 201.21 241.27 198.95 245.12 201.17"/></g><g class="cls-7"><polygon class="cls-5" points="250.04 204.01 250.04 205.25 246.14 207.52 246.14 206.28 250.04 204.01"/><polygon class="cls-5" points="246.14 206.28 246.14 207.52 242.29 205.3 242.3 204.06 246.14 206.28"/><polygon class="cls-8" points="250.04 204.01 246.14 206.28 242.3 204.06 246.2 201.79 250.04 204.01"/></g><g class="cls-7"><polygon class="cls-5" points="254.98 206.86 254.97 208.1 251.08 210.37 251.08 209.13 254.98 206.86"/><polygon class="cls-5" points="251.08 209.13 251.08 210.37 247.22 208.14 247.22 206.9 251.08 209.13"/><polygon class="cls-8" points="254.98 206.86 251.08 209.13 247.22 206.9 251.12 204.63 254.98 206.86"/></g><g class="cls-7"><polygon class="cls-5" points="259.9 209.71 259.9 210.94 256 213.21 256 211.97 259.9 209.71"/><polygon class="cls-5" points="256 211.97 256 213.21 252.15 210.99 252.16 209.75 256 211.97"/><polygon class="cls-8" points="259.9 209.71 256 211.97 252.16 209.75 256.06 207.48 259.9 209.71"/></g><g class="cls-7"><polygon class="cls-5" points="205.65 184.14 205.64 185.38 201.74 187.64 201.75 186.4 205.65 184.14"/><polygon class="cls-5" points="201.75 186.4 201.74 187.64 192.96 182.57 192.96 181.33 201.75 186.4"/><polygon class="cls-8" points="205.65 184.14 201.75 186.4 192.96 181.33 196.86 179.07 205.65 184.14"/></g><g class="cls-7"><polygon class="cls-5" points="210.57 186.98 210.57 188.22 206.67 190.49 206.67 189.25 210.57 186.98"/><polygon class="cls-5" points="206.67 189.25 206.67 190.49 202.82 188.27 202.82 187.03 206.67 189.25"/><polygon class="cls-8" points="210.57 186.98 206.67 189.25 202.82 187.03 206.72 184.76 210.57 186.98"/></g><g class="cls-7"><polygon class="cls-5" points="215.5 189.82 215.5 191.07 211.59 193.33 211.6 192.09 215.5 189.82"/><polygon class="cls-5" points="211.6 192.09 211.59 193.33 207.75 191.11 207.75 189.87 211.6 192.09"/><polygon class="cls-8" points="215.5 189.82 211.6 192.09 207.75 189.87 211.65 187.6 215.5 189.82"/></g><g class="cls-7"><polygon class="cls-5" points="220.43 192.68 220.43 193.91 216.53 196.18 216.53 194.94 220.43 192.68"/><polygon class="cls-5" points="216.53 194.94 216.53 196.18 212.68 193.96 212.69 192.72 216.53 194.94"/><polygon class="cls-8" points="220.43 192.68 216.53 194.94 212.69 192.72 216.59 190.45 220.43 192.68"/></g><g class="cls-7"><polygon class="cls-5" points="225.36 195.52 225.36 196.76 221.46 199.03 221.46 197.78 225.36 195.52"/><polygon class="cls-5" points="221.46 197.78 221.46 199.03 217.61 196.8 217.61 195.56 221.46 197.78"/><polygon class="cls-8" points="225.36 195.52 221.46 197.78 217.61 195.56 221.51 193.3 225.36 195.52"/></g><g class="cls-7"><polygon class="cls-5" points="230.28 198.36 230.28 199.6 226.38 201.87 226.39 200.63 230.28 198.36"/><polygon class="cls-5" points="226.39 200.63 226.38 201.87 222.53 199.65 222.54 198.41 226.39 200.63"/><polygon class="cls-8" points="230.28 198.36 226.39 200.63 222.54 198.41 226.44 196.14 230.28 198.36"/></g><g class="cls-7"><polygon class="cls-5" points="235.22 201.21 235.22 202.45 231.32 204.72 231.32 203.48 235.22 201.21"/><polygon class="cls-5" points="231.32 203.48 231.32 204.72 227.46 202.49 227.46 201.25 231.32 203.48"/><polygon class="cls-8" points="235.22 201.21 231.32 203.48 227.46 201.25 231.36 198.99 235.22 201.21"/></g><g class="cls-7"><polygon class="cls-5" points="240.15 204.06 240.14 205.3 236.24 207.56 236.25 206.32 240.15 204.06"/><polygon class="cls-5" points="236.25 206.32 236.24 207.56 232.4 205.34 232.4 204.1 236.25 206.32"/><polygon class="cls-8" points="240.15 204.06 236.25 206.32 232.4 204.1 236.3 201.84 240.15 204.06"/></g><g class="cls-7"><polygon class="cls-5" points="245.07 206.9 245.07 208.14 241.17 210.41 241.17 209.17 245.07 206.9"/><polygon class="cls-5" points="241.17 209.17 241.17 210.41 237.32 208.19 237.32 206.94 241.17 209.17"/><polygon class="cls-8" points="245.07 206.9 241.17 209.17 237.32 206.94 241.22 204.68 245.07 206.9"/></g><g class="cls-7"><polygon class="cls-5" points="254.93 212.59 254.93 213.83 251.03 216.1 251.03 214.86 254.93 212.59"/><polygon class="cls-5" points="251.03 214.86 251.03 216.1 242.25 211.03 242.25 209.79 251.03 214.86"/><polygon class="cls-8" points="254.93 212.59 251.03 214.86 242.25 209.79 246.15 207.52 254.93 212.59"/></g><g class="cls-7"><polygon class="cls-5" points="205.59 189.88 205.59 191.12 201.69 193.38 201.69 192.14 205.59 189.88"/><polygon class="cls-5" points="201.69 192.14 201.69 193.38 187.98 185.47 187.98 184.23 201.69 192.14"/><polygon class="cls-8" points="205.59 189.88 201.69 192.14 187.98 184.23 191.88 181.96 205.59 189.88"/></g><g class="cls-7"><polygon class="cls-5" points="210.52 192.72 210.51 193.96 206.61 196.23 206.62 194.99 210.52 192.72"/><polygon class="cls-5" points="206.62 194.99 206.61 196.23 202.77 194 202.77 192.76 206.62 194.99"/><polygon class="cls-8" points="210.52 192.72 206.62 194.99 202.77 192.76 206.67 190.5 210.52 192.72"/></g><g class="cls-7"><polygon class="cls-5" points="215.45 195.57 215.45 196.81 211.55 199.08 211.55 197.84 215.45 195.57"/><polygon class="cls-5" points="211.55 197.84 211.55 199.08 207.7 196.85 207.71 195.61 211.55 197.84"/><polygon class="cls-8" points="215.45 195.57 211.55 197.84 207.71 195.61 211.61 193.35 215.45 195.57"/></g><g class="cls-7"><polygon class="cls-5" points="220.38 198.41 220.38 199.65 216.48 201.92 216.48 200.68 220.38 198.41"/><polygon class="cls-5" points="216.48 200.68 216.48 201.92 212.63 199.7 212.63 198.46 216.48 200.68"/><polygon class="cls-8" points="220.38 198.41 216.48 200.68 212.63 198.46 216.53 196.19 220.38 198.41"/></g><g class="cls-7"><polygon class="cls-5" points="225.31 201.26 225.3 202.5 221.4 204.76 221.41 203.52 225.31 201.26"/><polygon class="cls-5" points="221.41 203.52 221.4 204.76 217.55 202.54 217.56 201.3 221.41 203.52"/><polygon class="cls-8" points="225.31 201.26 221.41 203.52 217.56 201.3 221.46 199.04 225.31 201.26"/></g><g class="cls-7"><polygon class="cls-5" points="230.24 204.11 230.24 205.35 226.34 207.61 226.34 206.37 230.24 204.11"/><polygon class="cls-5" points="226.34 206.37 226.34 207.61 222.48 205.39 222.48 204.15 226.34 206.37"/><polygon class="cls-8" points="230.24 204.11 226.34 206.37 222.48 204.15 226.38 201.88 230.24 204.11"/></g><g class="cls-7"><polygon class="cls-5" points="235.17 206.95 235.16 208.19 231.26 210.46 231.27 209.22 235.17 206.95"/><polygon class="cls-5" points="231.27 209.22 231.26 210.46 227.41 208.24 227.42 207 231.27 209.22"/><polygon class="cls-8" points="235.17 206.95 231.27 209.22 227.42 207 231.32 204.73 235.17 206.95"/></g><g class="cls-7"><polygon class="cls-5" points="240.09 209.79 240.09 211.03 236.19 213.3 236.19 212.06 240.09 209.79"/><polygon class="cls-5" points="236.19 212.06 236.19 213.3 232.34 211.08 232.34 209.84 236.19 212.06"/><polygon class="cls-8" points="240.09 209.79 236.19 212.06 232.34 209.84 236.24 207.57 240.09 209.79"/></g><g class="cls-7"><polygon class="cls-5" points="249.95 215.49 249.95 216.73 246.05 218.99 246.05 217.75 249.95 215.49"/><polygon class="cls-5" points="246.05 217.75 246.05 218.99 237.27 213.92 237.27 212.68 246.05 217.75"/><polygon class="cls-8" points="249.95 215.49 246.05 217.75 237.27 212.68 241.17 210.42 249.95 215.49"/></g><g class="cls-7"><polygon class="cls-5" points="190.76 187.07 190.76 188.31 186.86 190.58 186.86 189.34 190.76 187.07"/><polygon class="cls-5" points="186.86 189.34 186.86 190.58 183.01 188.36 183.01 187.12 186.86 189.34"/><polygon class="cls-8" points="190.76 187.07 186.86 189.34 183.01 187.12 186.91 184.85 190.76 187.07"/></g><g class="cls-7"><polygon class="cls-5" points="195.69 189.92 195.69 191.16 191.79 193.43 191.79 192.19 195.69 189.92"/><polygon class="cls-5" points="191.79 192.19 191.79 193.43 187.94 191.21 187.95 189.97 191.79 192.19"/><polygon class="cls-8" points="195.69 189.92 191.79 192.19 187.95 189.97 191.85 187.7 195.69 189.92"/></g><g class="cls-7"><polygon class="cls-5" points="200.62 192.76 200.62 194 196.72 196.27 196.72 195.03 200.62 192.76"/><polygon class="cls-5" points="196.72 195.03 196.72 196.27 192.87 194.05 192.87 192.81 196.72 195.03"/><polygon class="cls-8" points="200.62 192.76 196.72 195.03 192.87 192.81 196.77 190.54 200.62 192.76"/></g><g class="cls-7"><polygon class="cls-5" points="225.27 207 225.27 208.24 221.37 210.5 221.37 209.26 225.27 207"/><polygon class="cls-5" points="221.37 209.26 221.37 210.5 197.8 196.89 197.8 195.65 221.37 209.26"/><polygon class="cls-8" points="225.27 207 221.37 209.26 197.8 195.65 201.7 193.39 225.27 207"/></g><g class="cls-7"><polygon class="cls-5" points="230.19 209.84 230.19 211.08 226.29 213.35 226.29 212.11 230.19 209.84"/><polygon class="cls-5" points="226.29 212.11 226.29 213.35 222.44 211.13 222.45 209.88 226.29 212.11"/><polygon class="cls-8" points="230.19 209.84 226.29 212.11 222.45 209.88 226.35 207.62 230.19 209.84"/></g><g class="cls-7"><polygon class="cls-5" points="235.12 212.68 235.12 213.92 231.22 216.19 231.22 214.95 235.12 212.68"/><polygon class="cls-5" points="231.22 214.95 231.22 216.19 227.37 213.97 227.37 212.73 231.22 214.95"/><polygon class="cls-8" points="235.12 212.68 231.22 214.95 227.37 212.73 231.27 210.46 235.12 212.68"/></g><g class="cls-7"><polygon class="cls-5" points="244.98 218.38 244.98 219.62 241.08 221.88 241.08 220.64 244.98 218.38"/><polygon class="cls-5" points="241.08 220.64 241.08 221.88 232.3 216.81 232.3 215.57 241.08 220.64"/><polygon class="cls-8" points="244.98 218.38 241.08 220.64 232.3 215.57 236.2 213.31 244.98 218.38"/></g><ellipse class="cls-2" cx="283.38" cy="235.44" rx="13.31" ry="7.68"/><rect class="cls-2" x="270.08" y="213.19" width="26.61" height="22.25"/><ellipse class="cls-8" cx="283.38" cy="213.19" rx="13.31" ry="7.68"/><path class="cls-9" d="M293.5,214.84a6.84,6.84,0,0,1-2.47,2,18.44,18.44,0,0,1-15,0,6.71,6.71,0,0,1-2.46-2c-1.37-1.92-.55-4.16,2.46-5.7a18.44,18.44,0,0,1,15,0C294,210.68,294.86,212.92,293.5,214.84Z"/><path class="cls-10" d="M293.5,214.84a6.84,6.84,0,0,1-2.47,2,18.44,18.44,0,0,1-15,0,6.71,6.71,0,0,1-2.46-2,6.71,6.71,0,0,1,2.46-2,18.44,18.44,0,0,1,15,0A6.84,6.84,0,0,1,293.5,214.84Z"/><polygon class="cls-8" points="184.04 173.74 151.58 155 197.48 128.5 229.94 147.24 184.04 173.74"/><polygon class="cls-11" points="184.69 167.39 155.38 150.47 196.83 126.54 226.14 143.46 184.69 167.39"/><polygon class="cls-8" points="250.5 110.84 250.5 115.76 261.93 122.16 261.93 116.5 250.5 110.84"/><path class="cls-4" d="M253.27,194.11,232.1,181.88a2,2,0,0,1,0-3.54l24.11-13.91,27.17,15.68-24.23,14A5.88,5.88,0,0,1,253.27,194.11Z"/><path class="cls-4" d="M218.81,69l-3.1,2.1,3,76.6L317,207.8l2.81-1.89a1.59,1.59,0,0,0,.7-1.31v-76a2.41,2.41,0,0,0-1.21-2.09L219.69,69A.82.82,0,0,0,218.81,69Z"/><path class="cls-2" d="M315.78,128.4a3,3,0,0,1,1.51,2.6v76a.9.9,0,0,1-1.34.77l-98.07-56.63a4.72,4.72,0,0,1-2.37-4.11V71.59a.63.63,0,0,1,.94-.55"/><polygon class="cls-8" points="215.51 135.27 215.51 74.33 317.16 133.04 317.29 194.04 215.51 135.27"/><polygon class="cls-2" points="232.56 93.64 226.5 90.14 226.5 88.63 232.56 92.14 232.56 93.64"/><polygon class="cls-3" points="285.4 124.14 236.44 95.88 236.44 94.37 285.4 122.64 285.4 124.14"/><polygon class="cls-3" points="305.89 135.98 289.68 126.61 289.68 125.11 305.89 134.48 305.89 135.98"/><polygon class="cls-2" points="232.56 98.56 226.5 95.06 226.5 93.56 232.56 97.06 232.56 98.56"/><polygon class="cls-3" points="285.4 129.07 236.44 100.8 236.44 99.3 285.4 127.57 285.4 129.07"/><polygon class="cls-3" points="305.89 140.91 289.68 131.54 289.68 130.03 305.89 139.4 305.89 140.91"/><polygon class="cls-2" points="232.56 103.49 226.5 99.98 226.5 98.48 232.56 101.99 232.56 103.49"/><polygon class="cls-3" points="275.44 128.24 236.44 105.72 236.44 104.22 275.44 126.74 275.44 128.24"/><polygon class="cls-3" points="305.89 145.83 279.43 130.55 279.43 129.04 305.89 144.33 305.89 145.83"/><polygon class="cls-2" points="232.56 108.41 226.5 104.91 226.5 103.41 232.56 106.91 232.56 108.41"/><polygon class="cls-3" points="292.48 143.01 236.44 110.65 236.44 109.15 292.48 141.5 292.48 143.01"/><polygon class="cls-3" points="305.89 150.75 289.68 141.39 289.68 139.88 305.89 149.25 305.89 150.75"/><polygon class="cls-2" points="232.56 113.34 226.5 109.84 226.5 108.33 232.56 111.84 232.56 113.34"/><polygon class="cls-3" points="285.4 143.84 236.44 115.58 236.44 114.07 285.4 142.34 285.4 143.84"/><polygon class="cls-3" points="305.89 155.68 289.68 146.31 289.68 144.81 305.89 154.18 305.89 155.68"/><polygon class="cls-2" points="232.56 118.26 226.5 114.76 226.5 113.26 232.56 116.76 232.56 118.26"/><polygon class="cls-3" points="271.29 140.64 236.44 120.5 236.44 119 271.29 139.13 271.29 140.64"/><polygon class="cls-3" points="305.89 160.61 303.11 159 303.11 157.49 305.89 159.1 305.89 160.61"/><polygon class="cls-3" points="299.06 156.65 289.68 151.24 289.68 149.74 299.06 155.15 299.06 156.65"/><polygon class="cls-2" points="232.56 123.19 226.5 119.69 226.5 118.18 232.56 121.69 232.56 123.19"/><polygon class="cls-3" points="277.92 149.38 236.44 125.43 236.44 123.92 277.92 147.87 277.92 149.38"/><polygon class="cls-3" points="305.89 165.53 281.92 151.69 281.92 150.19 305.89 164.03 305.89 165.53"/><polygon class="cls-2" points="232.56 128.11 226.5 124.61 226.5 123.11 232.56 126.61 232.56 128.11"/><polygon class="cls-3" points="259.85 143.87 236.44 130.35 236.44 128.85 259.85 142.36 259.85 143.87"/><polygon class="cls-3" points="305.89 170.46 264.41 146.5 264.41 145 305.89 168.95 305.89 170.46"/><polygon class="cls-2" points="232.56 133.04 226.5 129.54 226.5 128.03 232.56 131.54 232.56 133.04"/><polygon class="cls-3" points="285.4 163.55 236.44 135.28 236.44 133.78 285.4 162.04 285.4 163.55"/><polygon class="cls-3" points="305.89 175.38 289.68 166.01 289.68 164.51 305.89 173.88 305.89 175.38"/><polygon class="cls-3" points="350.67 111.4 272.8 67.09 272.8 28.58 350.67 72.89 350.67 111.4"/><path class="cls-4" d="M293.5,50.15V69.34L291,67.92V59.27l-8.67-5v8.65l-2.47-1.43V42.29l2.47,1.43v8.47l8.67,5V48.72Z"/><path class="cls-4" d="M308.94,61.44l-5.28-3V75.21l-2.45-1.42V57l-5.3-3.07V51.54l13,7.52Z"/><path class="cls-4" d="M328.82,70.54V89.73l-2.16-1.24V74.83c0-.21,0-.42,0-.65s0-.45,0-.68L321.19,82c-.2.33-.49.37-.89.14L320,82a2,2,0,0,1-.88-1.16l-5.64-15c.05.53.07,1,.07,1.45V80.89l-2.16-1.25V60.44l1.82,1.06a2.6,2.6,0,0,1,.51.36,1.75,1.75,0,0,1,.34.61l5.56,14.7c.1.29.2.6.3.91s.18.62.26.93a8.31,8.31,0,0,1,.57-1.2l5.45-8.33c.1-.17.21-.24.33-.22a1.63,1.63,0,0,1,.51.22Z"/><path class="cls-4" d="M342.44,95.2v2.39l-9.52-5.49V72.91l2.47,1.42v16.8Z"/><polygon class="cls-4" points="181.95 106.33 121.64 72.64 121.64 34.13 181.95 67.82 181.95 106.33"/><path class="cls-2" d="M143.87,71.26a1,1,0,0,1,.36.4l1,1.79a3.59,3.59,0,0,1-2.48.72,8.38,8.38,0,0,1-3.53-1.28,14.24,14.24,0,0,1-3.27-2.6,17.6,17.6,0,0,1-2.5-3.47,18,18,0,0,1-1.6-4,16.6,16.6,0,0,1-.57-4.3,9.64,9.64,0,0,1,.6-3.63,4.41,4.41,0,0,1,1.67-2.13,4,4,0,0,1,2.58-.53,8.23,8.23,0,0,1,3.31,1.19,13.42,13.42,0,0,1,3.15,2.49,18.28,18.28,0,0,1,2.4,3.16l-.81.85a.34.34,0,0,1-.2.13.58.58,0,0,1-.32-.09,2,2,0,0,1-.52-.55,12.41,12.41,0,0,0-.77-1,13.35,13.35,0,0,0-1.19-1.25,9.4,9.4,0,0,0-1.76-1.27,5.53,5.53,0,0,0-2.27-.81,2.62,2.62,0,0,0-1.77.42,3.19,3.19,0,0,0-1.16,1.64,8.36,8.36,0,0,0-.41,2.86,13.31,13.31,0,0,0,1.61,6.35,11.76,11.76,0,0,0,1.77,2.47,9.51,9.51,0,0,0,2.2,1.76,11.14,11.14,0,0,0,1.29.65,5,5,0,0,0,1,.3,2.54,2.54,0,0,0,.91,0,2.82,2.82,0,0,0,.84-.26.48.48,0,0,1,.2,0A.49.49,0,0,1,143.87,71.26Z"/><path class="cls-2" d="M156.29,66.49a.5.5,0,0,1-.24.19.45.45,0,0,1-.33-.08,2,2,0,0,1-.47-.49c-.18-.25-.4-.55-.67-.88a9.8,9.8,0,0,0-1-1,7,7,0,0,0-1.33-1,4.35,4.35,0,0,0-1.28-.52,1.61,1.61,0,0,0-.92.07,1.1,1.1,0,0,0-.56.58,2.26,2.26,0,0,0-.19,1,3.31,3.31,0,0,0,.34,1.48,6.91,6.91,0,0,0,.89,1.39,17.47,17.47,0,0,0,1.27,1.35l1.44,1.39c.5.48,1,1,1.45,1.5A12,12,0,0,1,156,73.1a9,9,0,0,1,.9,1.91,6.87,6.87,0,0,1,.34,2.21,5.53,5.53,0,0,1-.38,2.16,2.6,2.6,0,0,1-1.09,1.31A2.81,2.81,0,0,1,154,81a6.59,6.59,0,0,1-2.37-.9A11.28,11.28,0,0,1,150.08,79a15,15,0,0,1-1.43-1.33,15.3,15.3,0,0,1-1.25-1.52,15.14,15.14,0,0,1-1.05-1.64l.7-1a.5.5,0,0,1,.25-.13.49.49,0,0,1,.33.09,2,2,0,0,1,.56.61c.22.32.48.69.79,1.11a13.7,13.7,0,0,0,1.12,1.29,7.25,7.25,0,0,0,1.6,1.22,4.31,4.31,0,0,0,1.36.55,1.59,1.59,0,0,0,1-.08,1.32,1.32,0,0,0,.64-.69,3.08,3.08,0,0,0,.22-1.23,3.72,3.72,0,0,0-.34-1.57,6.28,6.28,0,0,0-.89-1.41A13.11,13.11,0,0,0,152.44,72c-.47-.44-1-.89-1.45-1.36s-1-1-1.45-1.47a10.91,10.91,0,0,1-1.26-1.67,8.59,8.59,0,0,1-.89-2,8,8,0,0,1-.34-2.36,4.33,4.33,0,0,1,.35-1.79,2.36,2.36,0,0,1,1-1.12,2.78,2.78,0,0,1,1.64-.24,5.88,5.88,0,0,1,2.22.84,11.46,11.46,0,0,1,2.58,2,14,14,0,0,1,2,2.65Z"/><path class="cls-2" d="M168.88,73.76a.43.43,0,0,1-.24.19.43.43,0,0,1-.32-.08,1.71,1.71,0,0,1-.48-.49c-.17-.25-.4-.55-.66-.88a11.18,11.18,0,0,0-1-1,6.67,6.67,0,0,0-1.33-1,4.14,4.14,0,0,0-1.28-.52,1.62,1.62,0,0,0-.92.07,1.17,1.17,0,0,0-.56.58,2.29,2.29,0,0,0-.19,1,3.31,3.31,0,0,0,.34,1.48,7.45,7.45,0,0,0,.9,1.39,15.62,15.62,0,0,0,1.26,1.36l1.45,1.39c.49.47,1,1,1.44,1.49a12.89,12.89,0,0,1,1.27,1.67,9.24,9.24,0,0,1,.89,1.91,6.87,6.87,0,0,1,.34,2.21,5.54,5.54,0,0,1-.37,2.16,2.62,2.62,0,0,1-1.1,1.31,2.76,2.76,0,0,1-1.76.28,6.45,6.45,0,0,1-2.38-.9,11,11,0,0,1-1.55-1.07,14.89,14.89,0,0,1-1.42-1.33A15.4,15.4,0,0,1,160,83.42a15.14,15.14,0,0,1-1.05-1.64l.71-1a.47.47,0,0,1,.25-.13.59.59,0,0,1,.33.09,1.94,1.94,0,0,1,.56.62c.21.31.47.68.79,1.1a12.38,12.38,0,0,0,1.12,1.29A7,7,0,0,0,164.29,85a4.35,4.35,0,0,0,1.37.55,1.6,1.6,0,0,0,1-.08,1.34,1.34,0,0,0,.63-.69,2.91,2.91,0,0,0,.22-1.23,3.6,3.6,0,0,0-.34-1.57,6.28,6.28,0,0,0-.89-1.41A13.11,13.11,0,0,0,165,79.24l-1.45-1.36q-.74-.7-1.44-1.47a10.91,10.91,0,0,1-1.26-1.67,8.62,8.62,0,0,1-.9-2,7.94,7.94,0,0,1-.33-2.35,4.35,4.35,0,0,1,.34-1.8,2.31,2.31,0,0,1,1-1.11,2.76,2.76,0,0,1,1.64-.25,6.12,6.12,0,0,1,2.22.84,11.94,11.94,0,0,1,2.57,2,13.6,13.6,0,0,1,2.05,2.65Z"/><polygon class="cls-11" points="427.56 230.14 367.25 196.45 367.25 157.94 427.56 191.63 427.56 230.14"/><path class="cls-3" d="M381.63,175a15,15,0,0,1,2.77,2,12.06,12.06,0,0,1,2,2.34,9.6,9.6,0,0,1,1.15,2.56,9.79,9.79,0,0,1,.38,2.67,5.48,5.48,0,0,1-.41,2.25,2.37,2.37,0,0,1-1.19,1.26,3.22,3.22,0,0,1-2,.13,9.3,9.3,0,0,1-2.7-1.12l-2.57-1.48v7.07l-2.47-1.42v-19.2Zm0,9.88a5.34,5.34,0,0,0,1.65.67,1.85,1.85,0,0,0,1.19-.11,1.49,1.49,0,0,0,.72-.81,3.72,3.72,0,0,0,.25-1.44,6.22,6.22,0,0,0-.95-3.3,7.86,7.86,0,0,0-2.86-2.66l-2.57-1.48v7.65Z"/><path class="cls-3" d="M404.21,188V207.2l-2.47-1.42v-8.65l-8.67-5v8.64l-2.47-1.43V180.15l2.47,1.43v8.47l8.67,5v-8.47Z"/><path class="cls-3" d="M413.35,193.29a14.35,14.35,0,0,1,2.78,2,12.06,12.06,0,0,1,2,2.34,9.6,9.6,0,0,1,1.15,2.56,9.73,9.73,0,0,1,.38,2.67,5.48,5.48,0,0,1-.41,2.25,2.39,2.39,0,0,1-1.19,1.25,3.08,3.08,0,0,1-2,.13,8.91,8.91,0,0,1-2.71-1.11l-2.57-1.48V211l-2.46-1.42v-19.2Zm0,9.88a5.54,5.54,0,0,0,1.65.67,1.87,1.87,0,0,0,1.2-.11,1.52,1.52,0,0,0,.72-.81,3.73,3.73,0,0,0,.24-1.44,6.21,6.21,0,0,0-.94-3.3,7.9,7.9,0,0,0-2.87-2.66L410.78,194v7.64Z"/><polygon class="cls-4" points="462.17 101.32 420.72 78.12 420.72 39.61 462.17 62.81 462.17 101.32"/><path class="cls-8" d="M437.39,71A9,9,0,0,1,437,73.7a3.08,3.08,0,0,1-1,1.58,2.25,2.25,0,0,1-1.66.41,5.64,5.64,0,0,1-2.27-.84,14.89,14.89,0,0,1-2.39-1.75l.14-1.6a.39.39,0,0,1,.16-.31c.09,0,.22,0,.4.08a4.56,4.56,0,0,1,.54.42,5,5,0,0,0,.89.64,3.84,3.84,0,0,0,1.32.5,1.21,1.21,0,0,0,1-.24,1.93,1.93,0,0,0,.6-1,7,7,0,0,0,.2-1.9V57.08l2.47,1.42Z"/><path class="cls-8" d="M449.92,68.86a.41.41,0,0,1-.24.2.48.48,0,0,1-.32-.08,1.77,1.77,0,0,1-.48-.5l-.66-.88a12.55,12.55,0,0,0-1-1,6.67,6.67,0,0,0-1.33-1,4.24,4.24,0,0,0-1.28-.52,1.62,1.62,0,0,0-.92.07,1.11,1.11,0,0,0-.56.57,2.33,2.33,0,0,0-.19,1,3.31,3.31,0,0,0,.34,1.48,7.45,7.45,0,0,0,.9,1.39,15.55,15.55,0,0,0,1.26,1.35l1.45,1.39q.74.72,1.44,1.5a12,12,0,0,1,1.26,1.67,9,9,0,0,1,.9,1.91,6.83,6.83,0,0,1,.34,2.21,5.61,5.61,0,0,1-.37,2.16,2.66,2.66,0,0,1-1.1,1.31,2.78,2.78,0,0,1-1.76.28,6.63,6.63,0,0,1-2.38-.9,12,12,0,0,1-1.55-1.08A14.92,14.92,0,0,1,442.28,80,16.7,16.7,0,0,1,441,78.53a15.14,15.14,0,0,1-1-1.64l.71-1a.53.53,0,0,1,.25-.12.57.57,0,0,1,.33.08,2.21,2.21,0,0,1,.56.62q.32.48.78,1.11a15.32,15.32,0,0,0,1.13,1.29,6.93,6.93,0,0,0,1.59,1.21,4.45,4.45,0,0,0,1.36.56,1.62,1.62,0,0,0,1-.08,1.38,1.38,0,0,0,.63-.69,3.13,3.13,0,0,0,.22-1.24,3.63,3.63,0,0,0-.34-1.57,6.76,6.76,0,0,0-.89-1.41,14.16,14.16,0,0,0-1.26-1.34L444.62,73q-.74-.7-1.44-1.47a10.82,10.82,0,0,1-1.27-1.67,9,9,0,0,1-.89-2,8,8,0,0,1-.33-2.36,4.33,4.33,0,0,1,.34-1.79,2.33,2.33,0,0,1,1-1.12,2.69,2.69,0,0,1,1.64-.24,6,6,0,0,1,2.22.83,12,12,0,0,1,2.57,2,13.6,13.6,0,0,1,2,2.65Z"/><path class="cls-4" d="M102.29,382.69a8.2,8.2,0,0,1-3.72,6.42c-2,1.19-3.71.23-3.71-2.14a8.21,8.21,0,0,1,3.71-6.43C100.62,379.36,102.29,380.32,102.29,382.69Z"/><path class="cls-4" d="M99.24,380.79A8.2,8.2,0,0,1,97.67,388c-1.59,1.76-3.46,1.35-4.19-.9a8.23,8.23,0,0,1,1.57-7.26C96.64,378.13,98.51,378.53,99.24,380.79Z"/><path class="cls-4" d="M167.16,316.52s.39,12.49,2.12,16.91,6,4,9.23,3.65,11.53-6.31,15.57-10.17,12.49-3.12,19.22-12.62,0-13.54-2.12-13.73-13.22,8.69-22,5.19Z"/><path class="cls-12" d="M83.54,253.53s71.51-23.54,85.1-13.82c12.71,9.09,10.65,36.44,20.56,66a3.23,3.23,0,0,1-.09,2.33C187.58,311.55,182,321,167,318.53a437,437,0,0,1-14-44.25s-55.71,35.89-68.4,26.59S83.54,253.53,83.54,253.53Z"/><polygon class="cls-4" points="54.34 355.79 101.35 347.52 97.07 382.5 101.35 383.57 109.63 347.52 153.42 365.54 155.83 362.96 114.17 343.24 145.68 328.82 142.21 327.22 107.28 339.14 88.8 327.22 84.07 328.29 100.81 342.18 55.41 352.32 54.34 355.79"/><path class="cls-4" d="M60.3,351a8.19,8.19,0,0,1-3.71,6.43c-2.05,1.18-3.72.22-3.72-2.14a8.2,8.2,0,0,1,3.72-6.43C58.64,347.67,60.3,348.62,60.3,351Z"/><path class="cls-4" d="M62,352a8.23,8.23,0,0,1-3.71,6.43c-2,1.18-3.71.22-3.71-2.15a8.23,8.23,0,0,1,3.71-6.43C60.31,348.63,62,349.59,62,352Z"/><path class="cls-4" d="M157.46,361.75a8.19,8.19,0,0,1-3.71,6.43c-2.05,1.19-3.71.23-3.71-2.14a8.21,8.21,0,0,1,3.71-6.43C155.8,358.43,157.46,359.39,157.46,361.75Z"/><path class="cls-4" d="M155.39,360.39a8.19,8.19,0,0,1-3.71,6.43c-2.05,1.18-3.71.22-3.71-2.14a8.19,8.19,0,0,1,3.71-6.43C153.73,357.06,155.39,358,155.39,360.39Z"/><rect class="cls-4" x="102.4" y="323.24" width="8.43" height="20.63"/><path class="cls-4" d="M202,327.21s.39,12.49,2.12,16.92,6,4,9.23,3.65,11.53-6.32,15.57-10.18,12.49-3.12,19.22-12.62,0-13.53-2.12-13.72-12.66,7.78-21.42,4.27Z"/><path class="cls-11" d="M118.52,262.21s71.51-23.54,85.1-13.82c12.87,9.21,10.6,37.12,20.94,67.14,0,0-4.32,14.67-22.6,11.68A437,437,0,0,1,188,283s-55.71,35.89-68.4,26.59S118.52,262.21,118.52,262.21Z"/><path class="cls-2" d="M177,292.77c-2.52,13.62-25.72,30.26-66.08,36.31-1.41.22-14.82,2.86-26.63.54,7.42-14.22,27-37.83,20.87-61.09C119.62,270.78,179.22,280.81,177,292.77Z"/><path class="cls-11" d="M105.09,271.58l8.57,8.82c2,12.16,9.37,24,20.58,24.93l57.45-19.64v-20Z"/><path class="cls-4" d="M124.48,182.37,94.69,167.29a21.13,21.13,0,0,0-9.88-2.36c-6.29.08-15.43,2.18-19,12.91-5.69,17.07,12.73,86.42,12.73,86.42s18.51,22.89,33.13,21.81,35.68-13.41,35.68-23.71c0-7.34-5.69-41.91-8.95-61.12A26.06,26.06,0,0,0,124.48,182.37Z"/><path class="cls-13" d="M138.48,138.55c.16,0,3.81.87,5.74,1.34a1,1,0,0,1,.68,1.38l-1.24,2.78a2.62,2.62,0,0,1-2.4,1.56h-4.33"/><path class="cls-14" d="M99.7,164.79l3.07-19.95,38.67-22.41v15.12a7,7,0,0,1-.47,2.52l-.75,1.93a6.26,6.26,0,0,0-.33,3.32l.29,1.68a6.92,6.92,0,0,1-.44,3.84l-3.49,8.27a6.42,6.42,0,0,1-6.67,3.88l-5.48-.66-2.31,12.28Z"/><path class="cls-4" d="M101.84,155.65l6.78,1.38a11.26,11.26,0,0,0,9.68-2.6l9.18-8.13v2.22l1.47-.28a3.61,3.61,0,0,0,2.79-2.5l3.54-11.69s9.89-.84,12.81-13c0,0-10.86-10.72-26.46-9.61a25.77,25.77,0,0,0-21.31,14.07s-3.34-.42-4.87,3.76c-1.24,3.38,2.3,18.21,3.7,23.78A3.49,3.49,0,0,0,101.84,155.65Z"/><path class="cls-14" d="M127,151.34l1.23-6.37s-1.29-3.1-4.28-1.87-1.71,9,0,9.25A4.18,4.18,0,0,0,127,151.34Z"/><polygon class="cls-2" points="128.21 144.97 144.31 144.01 145.32 141.46 127.03 143.44 128.21 144.97"/><path class="cls-2" d="M116.29,296.19c2.21,22.75-20.84,40-41.84,31-19.57-8.41-33.92-27.08-38.18-59.32-4.75-35.9,1.67-58.62,6.38-69.66a13,13,0,0,1,13.71-7.69c45.08,6.28,56.35,80.34,56.35,80.34S115,282.65,116.29,296.19Z"/><path class="cls-14" d="M155.69,192.31s5.46-10.69,7.13-11.74,15.53-1.47,16.79-1.68,3.77,2.52,3.77,2.52,7.13-.21,8,0,.63,4.18-1.26,4.19a26.38,26.38,0,0,0-5.5,1.12l-4.36,5.59s-7.34,4.83-8.6,4.83-10.06,1.68-10.06,1.68Z"/><path class="cls-14" d="M203.3,207.48s5.46-10.7,7.13-11.75,15.53-1.47,16.78-1.68,3.78,2.52,3.78,2.52l2.67,1.67a2.77,2.77,0,0,1,.13,4.62c-2.8,2-5.95,4.62-5.95,4.62s-7.34,4.82-8.6,4.82S209.17,214,209.17,214Z"/><path class="cls-4" d="M111.67,213.57l48.39,27.35a17,17,0,0,0,17.72-.62l36.77-27.09s-1.78-9.2-8.9-11.29c-1.48-.43-33.11,11.05-33.11,11.05a6.54,6.54,0,0,1-6.46-.69l-36.74-26.72-17.67,23.93"/><path class="cls-4" d="M121.43,196.27,157,188c7.3,0,8.37,10.42,8.37,10.42l-24.52,17.38Z"/><path class="cls-4" d="M147.35,325.47a8.21,8.21,0,0,1-3.71,6.43c-2,1.18-3.71.22-3.71-2.15a8.19,8.19,0,0,1,3.71-6.42C145.69,322.14,147.35,323.1,147.35,325.47Z"/><ellipse class="cls-4" cx="141.93" cy="326.63" rx="5.25" ry="3.03" transform="translate(-211.9 286.22) rotate(-60)"/><path class="cls-15" d="M177,292.77c-43.9,24.94-57,6.77-60.58-2a20.28,20.28,0,0,1-1.22-4s-8.91-46.21-20.84-67.53c-10.07-18-23.49-29.93-44.41-30.57"/><polygon class="cls-11" points="100.04 161.57 94.69 167.28 124.48 182.37 122.4 171.39 100.04 161.57"/></g></g></svg>